<svg id="Réteg_1" data-name="Réteg 1" xmlns="http://www.w3.org/2000/svg" viewBox="0 0 395.05 125.52"><defs><style>.cls-1{fill:#ed553b;}.cls-2{font-size:72px;font-family:Lobster-Regular, Lobster;}</style></defs><path class="cls-1" d="M6.7,76.12C6.7,88,29.93,97.64,41.82,97.64a21.52,21.52,0,0,0,0-43C29.93,54.6,6.7,64.23,6.7,76.12Zm50.75.11A11.22,11.22,0,1,1,46.23,65,11.22,11.22,0,0,1,57.45,76.23Z" transform="translate(-6.7 -13.35)"/><path class="cls-1" d="M24.68,135.38c8.41,8.41,31.65-1.2,40.05-9.61A21.52,21.52,0,0,0,34.29,95.34C25.89,103.74,16.28,127,24.68,135.38Zm36-35.8a11.21,11.21,0,1,1-15.85,0A11.21,11.21,0,0,1,60.64,99.58Z" transform="translate(-6.7 -13.35)"/><path class="cls-1" d="M24.68,16.6c-8.4,8.4,1.21,31.64,9.61,40A21.52,21.52,0,1,0,64.73,26.21C56.33,17.8,33.09,8.19,24.68,16.6Zm35.8,36a11.21,11.21,0,1,1,0-15.86A11.2,11.2,0,0,1,60.48,52.56Z" transform="translate(-6.7 -13.35)"/><text class="cls-2" transform="translate(66.79 86.44)">Rézi tojás</text><path class="cls-1" d="M366.64,54.84a21.52,21.52,0,1,0,0,43c11.89,0,35.11-9.63,35.11-21.52S378.53,54.84,366.64,54.84Zm-4.42,10.42A11.22,11.22,0,1,1,351,76.48,11.22,11.22,0,0,1,362.22,65.26Z" transform="translate(-6.7 -13.35)"/><path class="cls-1" d="M374.16,95.58A21.52,21.52,0,0,0,343.73,126c8.4,8.41,31.64,18,40,9.62S382.57,104,374.16,95.58Zm-10.49,4.24a11.21,11.21,0,1,1-15.86,0A11.21,11.21,0,0,1,363.67,99.82Z" transform="translate(-6.7 -13.35)"/><path class="cls-1" d="M343.73,26.45a21.52,21.52,0,0,0,30.43,30.44c8.41-8.41,18-31.65,9.61-40S352.13,18.05,343.73,26.45ZM348,36.94a11.21,11.21,0,1,1,0,15.86A11.21,11.21,0,0,1,348,36.94Z" transform="translate(-6.7 -13.35)"/></svg>